{"title":"Midnights Children 2012 BRRip 720p x264 AAC - PRiSTiNE [P2PDL]","uid":8385452,"size":879646503,"categoryP":"video","categoryS":"hd___movies","magnet":"?xt=urn:btih:bfe9d710d89cef60da1ae188b3f4dc393b47a207&amp;dn=Midnights+Children+2012+BRRip+720p+x264+AAC+-+PRiSTiNE+%5BP2PDL%5D&amp;tr=udp%3A%2F%2Ftracker.openbittorrent.com%3A80&amp;tr=udp%3A%2F%2Fopen.demonii.com%3A1337&amp;tr=udp%3A%2F%2Ftracker.coppersurfer.tk%3A6969&amp;tr=udp%3A%2F%2Fexodus.desync.com%3A6969","seeders":1,"leechers":0,"uploader":"Vitamin_X","files":-1,"time":1366281487,"description":"_________________________  Visit us at _________________________\n  &lt;a href=&quot;\nhttp://p2pdl.com&quot; rel=&quot;nofollow&quot; target=&quot;_NEW&quot;&gt;\nhttp://p2pdl.com&lt;/a&gt;  ____________________________ &lt;a href=&quot; http://p2pdl.com&quot; rel=&quot;nofollow&quot; target=&quot;_NEW&quot;&gt; http://p2pdl.com&lt;/a&gt;\n\n\nMidnights Children 2012 BRRip 720p x264 AAC - PRiSTiNE\n\nGenre: Drama\nPlot: A pair of children, born within moments of \nIndia gaining independence from Britain, grow up \nin the country that is nothing like their parent's \ngeneration.\nDirector: Deepa Mehta\nStars: Satya Bhabha, Shahana Goswami, Rajat Kapoor\nRated: PG 13\n\nInfo: &lt;a href=&quot;\nhttp://www.imdb.com/title/tt1714866/&quot; rel=&quot;nofollow&quot; target=&quot;_NEW&quot;&gt;\nhttp://www.imdb.com/title/tt1714866/&lt;/a&gt;\n\n\nGeneral\nComplete name                  : Midnights Children 2012 BRRip 720p x264 AAC - PRiSTiNE.mp4\nFormat                         : MPEG-4\nFormat profile                 : Base Media\nFile size                      : 835 MiB\nDuration                       : 2h 25mn\nOverall bit rate mode          : Variable\nOverall bit rate               : 802 Kbps\n\nVideo\nID                             : 1\nFormat                         : AVC\nFormat/Info                    : Advanced Video Codec\nFormat profile                 : High &lt;a class=&quot;__cf_email__&quot; href=&quot;/cdn-cgi/l/email-protection&quot; data-cfemail=&quot;b18081f1fd859f80&quot;&gt;[email&amp;#160;protected]&lt;/a&gt;&lt;script cf-hash='f9e31' type=&quot;text/javascript&quot;&gt;\n/* &lt;![CDATA[ */!function(){try{var t=&quot;currentScript&quot;in document?document.currentScript:function(){for(var t=document.getElementsByTagName(&quot;script&quot;),e=t.length;e--;)if(t[e].getAttribute(&quot;cf-hash&quot;))return t[e]}();if(t&amp;&amp;t.previousSibling){var e,r,n,i,c=t.previousSibling,a=c.getAttribute(&quot;data-cfemail&quot;);if(a){for(e=&quot;&quot;,r=parseInt(a.substr(0,2),16),n=2;a.length-n;n+=2)i=parseInt(a.substr(n,2),16)^r,e+=String.fromCharCode(i);e=document.createTextNode(e),c.parentNode.replaceChild(e,c)}}}catch(u){}}();/* ]]&gt; */&lt;/script&gt;\nBit rate                       : 719 Kbps\nWidth                          : 1 280 pixels\nHeight                         : 528 pixels\nDisplay aspect ratio           : 2.40:1\nFrame rate mode                : Constant\nFrame rate                     : 23.976 fps\nBit depth                      : 10 bits\nStream size                    : 748 MiB (90%)\nWriting library                : x264 core 130 r2273 b3065e6\n\nAudio\nFormat                         : AAC\nFormat/Info                    : Advanced Audio Codec\nBit rate mode                  : Variable\nBit rate                       : 79.9 Kbps\nChannel(s)                     : 2 channels\nChannel positions              : Front: L R\nSampling rate                  : 48.0 KHz / 24.0 KHz\nStream size                    : 83.2 MiB (10%)\nLanguage                       : English\n\nSubtitle                       : No\nSource                         : 720p.BluRay.DTS.x264-PublicHD (Thanks)\n\nScreens:\n &lt;a href=&quot;\nhttp://www.ultraimg.com/images/pXCz7.jpg&quot; rel=&quot;nofollow&quot; target=&quot;_NEW&quot;&gt;\nhttp://www.ultraimg.com/images/pXCz7.jpg&lt;/a&gt; &lt;a href=&quot;\nhttp://www.ultraimg.com/images/Vnovf.jpg&quot; rel=&quot;nofollow&quot; target=&quot;_NEW&quot;&gt;\nhttp://www.ultraimg.com/images/Vnovf.jpg&lt;/a&gt; &lt;a href=&quot;\nhttp://www.ultraimg.com/images/TxYkv.jpg&quot; rel=&quot;nofollow&quot; target=&quot;_NEW&quot;&gt;\nhttp://www.ultraimg.com/images/TxYkv.jpg&lt;/a&gt; &lt;a href=&quot;\nhttp://www.ultraimg.com/images/kgwTI.jpg&quot; rel=&quot;nofollow&quot; target=&quot;_NEW&quot;&gt;\nhttp://www.ultraimg.com/images/kgwTI.jpg&lt;/a&gt; &lt;a href=&quot;\nhttp://www.ultraimg.com/images/XYbZz.jpg&quot; rel=&quot;nofollow&quot; target=&quot;_NEW&quot;&gt;\nhttp://www.ultraimg.com/images/XYbZz.jpg&lt;/a&gt; &lt;a href=&quot;\nhttp://www.ultraimg.com/images/yGhPL.jpg&quot; rel=&quot;nofollow&quot; target=&quot;_NEW&quot;&gt;\nhttp://www.ultraimg.com/images/yGhPL.jpg&lt;/a&gt; &lt;a href=&quot;\nhttp://www.ultraimg.com/images/wipSH.jpg&quot; rel=&quot;nofollow&quot; target=&quot;_NEW&quot;&gt;\nhttp://www.ultraimg.com/images/wipSH.jpg&lt;/a&gt;\n\n----------------------------------------------------------------------------------------------------\n\n\nEncoded using revolutionary 10bit encoding, which enables us to provide you more crispier \nand sharper images at small sizes, just make sure you follow our instructions without a fault.\nRecommend to you to use latest version of VLC player. Install K-Lite Codec Pack or shark007 codecs\nin case of any kind of problem in playback (For non-VLC Media Player users). Alternatively, install\nCore AVC codecs, the fastest decoder that there is coupled with Community Center Codec Pack and play\non Windows Media Player Classic. Check sample to be sure.\nEnjoy!\n\nEncoder Notes:Looking For Early Access To Anything You Can Provide DVDScr, R5, DVDR, BluRay, Direct\nAudio, Music Releases and Seedboxes. We require dedicated servers, so as to do more \nand fast releases of movies.\nIf You Got anything to offer please contact us at &quot;&lt;a class=&quot;__cf_email__&quot; href=&quot;/cdn-cgi/l/email-protection&quot; data-cfemail=&quot;2d5d5f4a6d45585e45034e4240&quot;&gt;[email&amp;#160;protected]&lt;/a&gt;&lt;script cf-hash='f9e31' type=&quot;text/javascript&quot;&gt;\n/* &lt;![CDATA[ */!function(){try{var t=&quot;currentScript&quot;in document?document.currentScript:function(){for(var t=document.getElementsByTagName(&quot;script&quot;),e=t.length;e--;)if(t[e].getAttribute(&quot;cf-hash&quot;))return t[e]}();if(t&amp;&amp;t.previousSibling){var e,r,n,i,c=t.previousSibling,a=c.getAttribute(&quot;data-cfemail&quot;);if(a){for(e=&quot;&quot;,r=parseInt(a.substr(0,2),16),n=2;a.length-n;n+=2)i=parseInt(a.substr(n,2),16)^r,e+=String.fromCharCode(i);e=document.createTextNode(e),c.parentNode.replaceChild(e,c)}}}catch(u){}}();/* ]]&gt; */&lt;/script&gt;&quot;.\n\nFace book Fan Page:   &lt;a href=&quot;\nhttp://www.fb.me/p2pdl&quot; rel=&quot;nofollow&quot; target=&quot;_NEW&quot;&gt;\nhttp://www.fb.me/p2pdl&lt;/a&gt;","torrent":{"xt":"urn:btih:bfe9d710d89cef60da1ae188b3f4dc393b47a207","amp;dn":"Midnights+Children+2012+BRRip+720p+x264+AAC+-+PRiSTiNE+%5BP2PDL%5D","amp;tr":["udp%3A%2F%2Ftracker.openbittorrent.com%3A80","udp%3A%2F%2Fopen.demonii.com%3A1337","udp%3A%2F%2Ftracker.coppersurfer.tk%3A6969","udp%3A%2F%2Fexodus.desync.com%3A6969"],"infoHash":"bfe9d710d89cef60da1ae188b3f4dc393b47a207","infoHashBuffer":{"type":"Buffer","data":[191,233,215,16,216,156,239,96,218,26,225,136,179,244,220,57,59,71,162,7]},"announce":[],"urlList":[]}}